<svg xmlns="http://www.w3.org/2000/svg" width="1400" height="780" viewBox="0 0 1400 780" role="img" aria-label="i.MX 8M Plus boot chain: Boot ROM, U-Boot SPL, TF-A BL31, optional OP-TEE BL32, U-Boot proper BL33 and Linux, with where each runs, its privilege level, what it does, which file this repository builds for it, and which parts stay resident after Linux boots.">
  <defs>
    <marker id="ah" viewBox="0 0 10 10" refX="9" refY="5" markerWidth="7" markerHeight="7" orient="auto-start-reverse">
      <path d="M0,0 L10,5 L0,10 z" fill="#e5edf7"/>
    </marker>
    <marker id="ahr" viewBox="0 0 10 10" refX="9" refY="5" markerWidth="7" markerHeight="7" orient="auto-start-reverse">
      <path d="M0,0 L10,5 L0,10 z" fill="#fb7185"/>
    </marker>
  </defs>
  <style>
    text { font-family: "Segoe UI", "Helvetica Neue", Arial, "DejaVu Sans", sans-serif; fill: #e5edf7; }
    .mono { font-family: "SFMono-Regular", Consolas, "Liberation Mono", "DejaVu Sans Mono", monospace; }
    .t { font-size: 25px; font-weight: 700; }
    .st { font-size: 14px; fill: #9fb0c6; }
    .h { font-size: 16px; font-weight: 700; fill: #fff; }
    .num { font-size: 13px; font-weight: 700; }
    .chip { font-size: 12px; font-weight: 700; }
    .lbl { font-size: 10px; font-weight: 700; fill: #8a9bb3; letter-spacing: 0.08em; }
    .val { font-size: 13px; font-weight: 700; }
    .b { font-size: 12.5px; fill: #e5edf7; }
    .f { font-size: 11.5px; fill: #cbd5e1; }
    .band { font-size: 12px; font-weight: 700; letter-spacing: 0.1em; }
    .lane { font-size: 12px; font-weight: 600; fill: #fff; }
    .lane-d { font-size: 12px; font-weight: 600; fill: #fda4af; }
    .lane-g { font-size: 12px; font-weight: 600; fill: #9fb0c6; }
    .note { font-size: 11.5px; fill: #8a9bb3; }
    .arrowlbl { font-size: 11px; font-weight: 700; fill: #fb7185; }
  </style>

  <rect x="0" y="0" width="1400" height="780" rx="18" fill="#121c33"/>
  <rect x="0.5" y="0.5" width="1399" height="779" rx="18" fill="none" stroke="#1e2a44"/>

  <!-- Title -->
  <text class="t" x="30" y="44">How the i.MX 8M Plus boots, and what this repo builds for each stage</text>
  <text class="st" x="30" y="68">Power-on to login prompt: each stage loads the next, then either exits or stays resident to serve the next one.</text>

  <!-- World bands -->
  <rect x="18" y="84" width="908" height="402" rx="14" fill="#251020" stroke="#9f1239"/>
  <text class="band" x="32" y="106" style="fill:#fda4af">SECURE WORLD  ·  EL3 / S-EL1</text>
  <rect x="932" y="84" width="450" height="402" rx="14" fill="#052620" stroke="#059669"/>
  <text class="band" x="946" y="106" style="fill:#6ee7b7">NORMAL WORLD  ·  EL2 / EL1 / EL0</text>

  <!-- BL31 -> U-Boot ERET arc (over OP-TEE) -->
  <path d="M586,150 C586,114 1042,114 1042,150" fill="none" stroke="#fb7185" stroke-width="3.0" marker-end="url(#ahr)"/>
  <rect x="726" y="108" width="176" height="20" rx="10" fill="#121c33" stroke="#9f1239"/>
  <text class="arrowlbl" x="814" y="122" text-anchor="middle">ERET → U-Boot at EL2</text>

  <!-- ===== Card 1: Boot ROM ===== -->
  <g>
    <rect x="30" y="150" width="200" height="322" rx="12" fill="#121c33" stroke="#33415c"/>
    <path d="M30,162 a12,12 0 0 1 12,-12 h176 a12,12 0 0 1 12,12 v38 h-200 z" fill="#475569"/>
    <circle cx="54" cy="175" r="13" fill="#121c33"/><text class="num" x="54" y="180" text-anchor="middle" style="fill:#9fb0c6">1</text>
    <text class="h" x="76" y="181">Boot ROM</text>
    <rect x="44" y="210" width="172" height="24" rx="12" fill="#4a1530"/><text class="chip" x="130" y="226" text-anchor="middle" style="fill:#fda4af">EL3 · secure</text>
    <text class="lbl" x="44" y="256">RUNS FROM</text><text class="val mono" x="44" y="274">SoC mask ROM</text>
    <line x1="44" y1="290" x2="216" y2="290" stroke="#e2e8f0"/>
    <circle cx="48" cy="311" r="2.5" fill="#475569"/><text class="b" x="56" y="315">reads the boot switch</text>
    <circle cx="48" cy="335" r="2.5" fill="#475569"/><text class="b" x="56" y="339">loads imx-boot @ 32 KiB</text>
    <circle cx="48" cy="359" r="2.5" fill="#475569"/><text class="b" x="56" y="363">checks IVT, runs SPL</text>
    <line x1="44" y1="384" x2="216" y2="384" stroke="#e2e8f0"/>
    <text class="lbl" x="44" y="404">BUILT FROM</text>
    <text class="f mono" x="44" y="424">burned into silicon</text>
    <text class="f mono" x="44" y="442">(nothing to build)</text>
  </g>

  <!-- ===== Card 2: SPL ===== -->
  <g>
    <rect x="258" y="150" width="200" height="322" rx="12" fill="#121c33" stroke="#1d4ed8"/>
    <path d="M258,162 a12,12 0 0 1 12,-12 h176 a12,12 0 0 1 12,12 v38 h-200 z" fill="#2563eb"/>
    <circle cx="282" cy="175" r="13" fill="#121c33"/><text class="num" x="282" y="180" text-anchor="middle" style="fill:#93c5fd">2</text>
    <text class="h" x="304" y="181">U-Boot SPL</text>
    <rect x="272" y="210" width="172" height="24" rx="12" fill="#4a1530"/><text class="chip" x="358" y="226" text-anchor="middle" style="fill:#fda4af">EL3 · secure</text>
    <text class="lbl" x="272" y="256">RUNS FROM</text><text class="val mono" x="272" y="274">OCRAM 0x0092_0000</text>
    <line x1="272" y1="290" x2="444" y2="290" stroke="#e2e8f0"/>
    <circle cx="276" cy="311" r="2.5" fill="#2563eb"/><text class="b" x="284" y="315">reads SoM EEPROM</text>
    <circle cx="276" cy="335" r="2.5" fill="#2563eb"/><text class="b" x="284" y="339">trains LPDDR4 (DDR FW)</text>
    <circle cx="276" cy="359" r="2.5" fill="#2563eb"/><text class="b" x="284" y="363">loads FIT: BL31, U-Boot</text>
    <line x1="272" y1="384" x2="444" y2="384" stroke="#e2e8f0"/>
    <text class="lbl" x="272" y="404">BUILT FROM</text>
    <text class="f mono" x="272" y="424">uboot-imx</text>
    <text class="f mono" x="272" y="442">spl/u-boot-spl.bin</text>
  </g>

  <!-- ===== Card 3: BL31 ===== -->
  <g>
    <rect x="486" y="150" width="200" height="322" rx="12" fill="#121c33" stroke="#e11d48"/>
    <path d="M486,162 a12,12 0 0 1 12,-12 h176 a12,12 0 0 1 12,12 v38 h-200 z" fill="#be123c"/>
    <circle cx="510" cy="175" r="13" fill="#121c33"/><text class="num" x="510" y="180" text-anchor="middle" style="fill:#fb7185">3</text>
    <text class="h" x="532" y="181">TF-A · BL31</text>
    <rect x="500" y="210" width="172" height="24" rx="12" fill="#4a1530"/><text class="chip" x="586" y="226" text-anchor="middle" style="fill:#fda4af">EL3 · secure monitor</text>
    <text class="lbl" x="500" y="256">RUNS FROM</text><text class="val mono" x="500" y="274">OCRAM 0x0097_0000</text>
    <line x1="500" y1="290" x2="672" y2="290" stroke="#e2e8f0"/>
    <circle cx="504" cy="311" r="2.5" fill="#be123c"/><text class="b" x="512" y="315">handles every SMC</text>
    <circle cx="504" cy="335" r="2.5" fill="#be123c"/><text class="b" x="512" y="339">sets TZASC / CSU / RDC</text>
    <circle cx="504" cy="359" r="2.5" fill="#be123c"/><text class="b" x="512" y="363">PSCI: CPU on/off, reset</text>
    <line x1="500" y1="384" x2="672" y2="384" stroke="#e2e8f0"/>
    <text class="lbl" x="500" y="404">BUILT FROM</text>
    <text class="f mono" x="500" y="424">imx-atf</text>
    <text class="f mono" x="500" y="442">build/imx8mp/…/bl31.bin</text>
  </g>

  <!-- ===== Card 4: OP-TEE (optional) ===== -->
  <g>
    <rect x="714" y="150" width="200" height="322" rx="12" fill="#121c33" stroke="#f43f5e" stroke-dasharray="6 5" stroke-width="1.5"/>
    <path d="M714,162 a12,12 0 0 1 12,-12 h176 a12,12 0 0 1 12,12 v38 h-200 z" fill="#9f1239"/>
    <circle cx="738" cy="175" r="13" fill="#121c33"/><text class="num" x="738" y="180" text-anchor="middle" style="fill:#fb7185">4</text>
    <text class="h" x="760" y="181" style="fill:#fecdd3">OP-TEE · BL32</text>
    <rect x="728" y="210" width="172" height="24" rx="12" fill="#4a1530"/><text class="chip" x="814" y="226" text-anchor="middle" style="fill:#fda4af">S-EL1 · trusted OS</text>
    <text class="lbl" x="728" y="256">WOULD RUN FROM</text><text class="val mono" x="728" y="274">DDR 0x5600_0000</text>
    <line x1="728" y1="290" x2="900" y2="290" stroke="#e2e8f0"/>
    <circle cx="732" cy="311" r="2.5" fill="#be123c"/><text class="b" x="740" y="315">runs Trusted Apps (TAs)</text>
    <circle cx="732" cy="335" r="2.5" fill="#be123c"/><text class="b" x="740" y="339">keys, crypto, storage</text>
    <circle cx="732" cy="359" r="2.5" fill="#be123c"/><text class="b" x="740" y="363">locks its RAM in TZASC</text>
    <line x1="728" y1="384" x2="900" y2="384" stroke="#e2e8f0"/>
    <text class="lbl" x="728" y="404">OPTIONAL</text>
    <text class="f mono" x="728" y="424">optee-os: tee.bin</text>
    <text class="f" x="728" y="442" font-weight="700" style="fill:#fb7185">not in this build (yet)</text>
  </g>

  <!-- ===== Card 5: U-Boot proper ===== -->
  <g>
    <rect x="942" y="150" width="200" height="322" rx="12" fill="#121c33" stroke="#1d4ed8"/>
    <path d="M942,162 a12,12 0 0 1 12,-12 h176 a12,12 0 0 1 12,12 v38 h-200 z" fill="#2563eb"/>
    <circle cx="966" cy="175" r="13" fill="#121c33"/><text class="num" x="966" y="180" text-anchor="middle" style="fill:#93c5fd">5</text>
    <text class="h" x="988" y="181">U-Boot · BL33</text>
    <rect x="956" y="210" width="172" height="24" rx="12" fill="#064e3b"/><text class="chip" x="1042" y="226" text-anchor="middle" style="fill:#6ee7b7">EL2 · non-secure</text>
    <text class="lbl" x="956" y="256">RUNS FROM</text><text class="val mono" x="956" y="274">DDR 0x4020_0000</text>
    <line x1="956" y1="290" x2="1128" y2="290" stroke="#e2e8f0"/>
    <circle cx="960" cy="311" r="2.5" fill="#2563eb"/><text class="b" x="968" y="315">picks DTB for module</text>
    <circle cx="960" cy="335" r="2.5" fill="#2563eb"/><text class="b" x="968" y="339">loads /boot/Image.gz</text>
    <circle cx="960" cy="359" r="2.5" fill="#2563eb"/><text class="b" x="968" y="363">sets bootargs, booti</text>
    <line x1="956" y1="384" x2="1128" y2="384" stroke="#e2e8f0"/>
    <text class="lbl" x="956" y="404">BUILT FROM</text>
    <text class="f mono" x="956" y="424">uboot-imx</text>
    <text class="f mono" x="956" y="442">u-boot-nodtb.bin + DTBs</text>
  </g>

  <!-- ===== Card 6: Linux ===== -->
  <g>
    <rect x="1170" y="150" width="200" height="322" rx="12" fill="#121c33" stroke="#14b8a6"/>
    <path d="M1170,162 a12,12 0 0 1 12,-12 h176 a12,12 0 0 1 12,12 v38 h-200 z" fill="#0f766e"/>
    <circle cx="1194" cy="175" r="13" fill="#121c33"/><text class="num" x="1194" y="180" text-anchor="middle" style="fill:#5eead4">6</text>
    <text class="h" x="1216" y="181">Linux 6.18</text>
    <rect x="1184" y="210" width="172" height="24" rx="12" fill="#064e3b"/><text class="chip" x="1270" y="226" text-anchor="middle" style="fill:#6ee7b7">EL1 kernel · EL0 apps</text>
    <text class="lbl" x="1184" y="256">RUNS FROM</text><text class="val mono" x="1184" y="274">DDR 0x4060_0000</text>
    <line x1="1184" y1="290" x2="1356" y2="290" stroke="#e2e8f0"/>
    <circle cx="1188" cy="311" r="2.5" fill="#0f766e"/><text class="b" x="1196" y="315">PSCI-starts 3 more CPUs</text>
    <circle cx="1188" cy="335" r="2.5" fill="#0f766e"/><text class="b" x="1196" y="339">mounts mmcblk1p1</text>
    <circle cx="1188" cy="359" r="2.5" fill="#0f766e"/><text class="b" x="1196" y="363">/sbin/init → login</text>
    <line x1="1184" y1="384" x2="1356" y2="384" stroke="#e2e8f0"/>
    <text class="lbl" x="1184" y="404">BUILT FROM</text>
    <text class="f mono" x="1184" y="424">linux-imx: Image.gz</text>
    <text class="f mono" x="1184" y="442">+ DTBs, modules, rootfs</text>
  </g>

  <!-- Straight hand-offs -->
  <line x1="232" y1="300" x2="256" y2="300" stroke="#e5edf7" stroke-width="3.0" marker-end="url(#ah)"/>
  <line x1="460" y1="300" x2="484" y2="300" stroke="#e5edf7" stroke-width="3.0" marker-end="url(#ah)"/>
  <line x1="688" y1="292" x2="712" y2="292" stroke="#fb7185" stroke-width="2.7" stroke-dasharray="4 3" marker-end="url(#ahr)"/>
  <line x1="712" y1="322" x2="688" y2="322" stroke="#fb7185" stroke-width="2.7" stroke-dasharray="4 3" marker-end="url(#ahr)"/>
  <line x1="1144" y1="300" x2="1168" y2="300" stroke="#e5edf7" stroke-width="3.0" marker-end="url(#ah)"/>

  <!-- Resident lanes -->
  <text class="band" x="30" y="520" style="fill:#cbd5e1">STILL IN MEMORY WHILE LINUX RUNS</text>
  <line x1="30" y1="530" x2="1370" y2="530" stroke="#e2e8f0"/>

  <rect x="30" y="544" width="428" height="26" rx="13" fill="#1d2a45"/>
  <text class="lane-g" x="46" y="562">Boot ROM, SPL: finished, OCRAM reused</text>

  <rect x="486" y="580" width="884" height="26" rx="13" fill="#be123c"/>
  <text class="lane" x="502" y="598">BL31 stays at EL3 for good: PSCI (CPU on/off, suspend, reboot) + i.MX SiP calls (DDR DVFS, CPU freq, power domains)</text>

  <rect x="714" y="616" width="656" height="26" rx="13" fill="#121c33" stroke="#f43f5e" stroke-dasharray="6 5" stroke-width="1.5"/>
  <text class="lane-d" x="730" y="634">OP-TEE would stay at S-EL1, reached through BL31 (only when built in)</text>

  <rect x="942" y="652" width="200" height="26" rx="13" fill="#2563eb"/>
  <text class="lane" x="958" y="670">U-Boot: gone after booti</text>

  <rect x="1170" y="688" width="200" height="26" rx="13" fill="#0f766e"/>
  <text class="lane" x="1186" y="706">Linux + your apps</text>

  <text class="note" x="30" y="752">Addresses from this repo's build: CONFIG_SPL_TEXT_BASE, imx-atf BL31_BASE, CONFIG_TEXT_BASE; the kernel is moved to 0x4060_0000 by booti. OP-TEE address = imx-atf BL32_BASE default.</text>
  <text class="note" x="30" y="770">Dashed = optional stage, not part of the default build. Red arrows = transitions owned by the secure monitor.</text>
<g id="icons"><g transform="translate(192,163) scale(1)" fill="none" stroke="#ffffff" stroke-width="2" stroke-linecap="round" stroke-linejoin="round"><path d="M10 12h4" /> <path d="M10 17h4" /> <path d="M10 7h4" /> <path d="M18 12h2" /> <path d="M18 18h2" /> <path d="M18 6h2" /> <path d="M4 12h2" /> <path d="M4 18h2" /> <path d="M4 6h2" /> <rect x="6" y="2" width="12" height="20" rx="2" /></g><g transform="translate(420,163) scale(1)" fill="none" stroke="#ffffff" stroke-width="2" stroke-linecap="round" stroke-linejoin="round"><path d="M12 12v-2" /> <path d="M12 18v-2" /> <path d="M16 12v-2" /> <path d="M16 18v-2" /> <path d="M2 11h1.5" /> <path d="M20 18v-2" /> <path d="M20.5 11H22" /> <path d="M4 18v-2" /> <path d="M8 12v-2" /> <path d="M8 18v-2" /> <rect x="2" y="6" width="20" height="10" rx="2" /></g><g transform="translate(648,163) scale(1)" fill="none" stroke="#ffffff" stroke-width="2" stroke-linecap="round" stroke-linejoin="round"><path d="M20 13c0 5-3.5 7.5-7.66 8.95a1 1 0 0 1-.67-.01C7.5 20.5 4 18 4 13V6a1 1 0 0 1 1-1c2 0 4.5-1.2 6.24-2.72a1.17 1.17 0 0 1 1.52 0C14.51 3.81 17 5 19 5a1 1 0 0 1 1 1z" /> <path d="m9 12 2 2 4-4" /></g><g transform="translate(876,163) scale(1)" fill="none" stroke="#fecdd3" stroke-width="2" stroke-linecap="round" stroke-linejoin="round"><rect width="18" height="11" x="3" y="11" rx="2" ry="2" /> <path d="M7 11V7a5 5 0 0 1 10 0v4" /></g><g transform="translate(1104,163) scale(1)" fill="none" stroke="#ffffff" stroke-width="2" stroke-linecap="round" stroke-linejoin="round"><path d="M12 15v5s3.03-.55 4-2c1.08-1.62 0-5 0-5" /> <path d="M4.5 16.5c-1.5 1.26-2 5-2 5s3.74-.5 5-2c.71-.84.7-2.13-.09-2.91a2.18 2.18 0 0 0-2.91-.09" /> <path d="M9 12a22 22 0 0 1 2-3.95A12.88 12.88 0 0 1 22 2c0 2.72-.78 7.5-6 11a22.4 22.4 0 0 1-4 2z" /> <path d="M9 12H4s.55-3.03 2-4c1.62-1.08 5 .05 5 .05" /></g><g transform="translate(1332,163) scale(1)" fill="#ffffff"><path d="M12.504 0c-.155 0-.315.008-.48.021-4.226.333-3.105 4.807-3.17 6.298-.076 1.092-.3 1.953-1.05 3.02-.885 1.051-2.127 2.75-2.716 4.521-.278.832-.41 1.684-.287 2.489a.424.424 0 00-.11.135c-.26.268-.45.6-.663.839-.199.199-.485.267-.797.4-.313.136-.658.269-.864.68-.09.189-.136.394-.132.602 0 .199.027.4.055.536.058.399.116.728.04.97-.249.68-.28 1.145-.106 1.484.174.334.535.47.94.601.81.2 1.91.135 2.774.6.926.466 1.866.67 2.616.47.526-.116.97-.464 1.208-.946.587-.003 1.23-.269 2.26-.334.699-.058 1.574.267 2.577.2.025.134.063.198.114.333l.003.003c.391.778 1.113 1.132 1.884 1.071.771-.06 1.592-.536 2.257-1.306.631-.765 1.683-1.084 2.378-1.503.348-.199.629-.469.649-.853.023-.4-.2-.811-.714-1.376v-.097l-.003-.003c-.17-.2-.25-.535-.338-.926-.085-.401-.182-.786-.492-1.046h-.003c-.059-.054-.123-.067-.188-.135a.357.357 0 00-.19-.064c.431-1.278.264-2.55-.173-3.694-.533-1.41-1.465-2.638-2.175-3.483-.796-1.005-1.576-1.957-1.56-3.368.026-2.152.236-6.133-3.544-6.139zm.529 3.405h.013c.213 0 .396.062.584.198.19.135.33.332.438.533.105.259.158.459.166.724 0-.02.006-.04.006-.06v.105a.086.086 0 01-.004-.021l-.004-.024a1.807 1.807 0 01-.15.706.953.953 0 01-.213.335.71.71 0 00-.088-.042c-.104-.045-.198-.064-.284-.133a1.312 1.312 0 00-.22-.066c.05-.06.146-.133.183-.198.053-.128.082-.264.088-.402v-.02a1.21 1.21 0 00-.061-.4c-.045-.134-.101-.2-.183-.333-.084-.066-.167-.132-.267-.132h-.016c-.093 0-.176.03-.262.132a.8.8 0 00-.205.334 1.18 1.18 0 00-.09.4v.019c.002.089.008.179.02.267-.193-.067-.438-.135-.607-.202a1.635 1.635 0 01-.018-.2v-.02a1.772 1.772 0 01.15-.768c.082-.22.232-.406.43-.533a.985.985 0 01.594-.2zm-2.962.059h.036c.142 0 .27.048.399.135.146.129.264.288.344.465.09.199.14.4.153.667v.004c.007.134.006.2-.002.266v.08c-.03.007-.056.018-.083.024-.152.055-.274.135-.393.2.012-.09.013-.18.003-.267v-.015c-.012-.133-.04-.2-.082-.333a.613.613 0 00-.166-.267.248.248 0 00-.183-.064h-.021c-.071.006-.13.04-.186.132a.552.552 0 00-.12.27.944.944 0 00-.023.33v.015c.012.135.037.2.08.334.046.134.098.2.166.268.01.009.02.018.034.024-.07.057-.117.07-.176.136a.304.304 0 01-.131.068 2.62 2.62 0 01-.275-.402 1.772 1.772 0 01-.155-.667 1.759 1.759 0 01.08-.668 1.43 1.43 0 01.283-.535c.128-.133.26-.2.418-.2zm1.37 1.706c.332 0 .733.065 1.216.399.293.2.523.269 1.052.468h.003c.255.136.405.266.478.399v-.131a.571.571 0 01.016.47c-.123.31-.516.643-1.063.842v.002c-.268.135-.501.333-.775.465-.276.135-.588.292-1.012.267a1.139 1.139 0 01-.448-.067 3.566 3.566 0 01-.322-.198c-.195-.135-.363-.332-.612-.465v-.005h-.005c-.4-.246-.616-.512-.686-.71-.07-.268-.005-.47.193-.6.224-.135.38-.271.483-.336.104-.074.143-.102.176-.131h.002v-.003c.169-.202.436-.47.839-.601.139-.036.294-.065.466-.065zm2.8 2.142c.358 1.417 1.196 3.475 1.735 4.473.286.534.855 1.659 1.102 3.024.156-.005.33.018.513.064.646-1.671-.546-3.467-1.089-3.966-.22-.2-.232-.335-.123-.335.59.534 1.365 1.572 1.646 2.757.13.535.16 1.104.021 1.67.067.028.135.06.205.067 1.032.534 1.413.938 1.23 1.537v-.043c-.06-.003-.12 0-.18 0h-.016c.151-.467-.182-.825-1.065-1.224-.915-.4-1.646-.336-1.77.465-.008.043-.013.066-.018.135-.068.023-.139.053-.209.064-.43.268-.662.669-.793 1.187-.13.533-.17 1.156-.205 1.869v.003c-.02.334-.17.838-.319 1.35-1.5 1.072-3.58 1.538-5.348.334a2.645 2.645 0 00-.402-.533 1.45 1.45 0 00-.275-.333c.182 0 .338-.03.465-.067a.615.615 0 00.314-.334c.108-.267 0-.697-.345-1.163-.345-.467-.931-.995-1.788-1.521-.63-.4-.986-.87-1.15-1.396-.165-.534-.143-1.085-.015-1.645.245-1.07.873-2.11 1.274-2.763.107-.065.037.135-.408.974-.396.751-1.14 2.497-.122 3.854a8.123 8.123 0 01.647-2.876c.564-1.278 1.743-3.504 1.836-5.268.048.036.217.135.289.202.218.133.38.333.59.465.21.201.477.335.876.335.039.003.075.006.11.006.412 0 .73-.134.997-.268.29-.134.52-.334.74-.4h.005c.467-.135.835-.402 1.044-.7zm2.185 8.958c.037.6.343 1.245.882 1.377.588.134 1.434-.333 1.791-.765l.211-.01c.315-.007.577.01.847.268l.003.003c.208.199.305.53.391.876.085.4.154.78.409 1.066.486.527.645.906.636 1.14l.003-.007v.018l-.003-.012c-.015.262-.185.396-.498.595-.63.401-1.746.712-2.457 1.57-.618.737-1.37 1.14-2.036 1.191-.664.053-1.237-.2-1.574-.898l-.005-.003c-.21-.4-.12-1.025.056-1.69.176-.668.428-1.344.463-1.897.037-.714.076-1.335.195-1.814.12-.465.308-.797.641-.984l.045-.022zm-10.814.049h.01c.053 0 .105.005.157.014.376.055.706.333 1.023.752l.91 1.664.003.003c.243.533.754 1.064 1.189 1.637.434.598.77 1.131.729 1.57v.006c-.057.744-.48 1.148-1.125 1.294-.645.135-1.52.002-2.395-.464-.968-.536-2.118-.469-2.857-.602-.369-.066-.61-.2-.723-.4-.11-.2-.113-.602.123-1.23v-.004l.002-.003c.117-.334.03-.752-.027-1.118-.055-.401-.083-.71.043-.94.16-.334.396-.4.69-.533.294-.135.64-.202.915-.47h.002v-.002c.256-.268.445-.601.668-.838.19-.201.38-.336.663-.336zm7.159-9.074c-.435.201-.945.535-1.488.535-.542 0-.97-.267-1.28-.466-.154-.134-.28-.268-.373-.335-.164-.134-.144-.333-.074-.333.109.016.129.134.199.2.096.066.215.2.36.333.292.2.68.467 1.167.467.485 0 1.053-.267 1.398-.466.195-.135.445-.334.648-.467.156-.136.149-.267.279-.267.128.016.034.134-.147.332a8.097 8.097 0 01-.69.468zm-1.082-1.583V5.64c-.006-.02.013-.042.029-.05.074-.043.18-.027.26.004.063 0 .16.067.15.135-.006.049-.085.066-.135.066-.055 0-.092-.043-.141-.068-.052-.018-.146-.008-.163-.065zm-.551 0c-.02.058-.113.049-.166.066-.047.025-.086.068-.14.068-.05 0-.13-.02-.136-.068-.01-.066.088-.133.15-.133.08-.031.184-.047.259-.005.019.009.036.03.03.05v.02h.003z"/></g></g><!--/icons--></svg>
