<svg xmlns="http://www.w3.org/2000/svg" width="1400" height="940" viewBox="0 0 1400 940" role="img" aria-label="Block map of the NXP i.MX 8M Plus SoC grouped by function with each acronym expanded: compute (Cortex-A53, Cortex-M7, GIC, PSCI), memory and boot (ROM, OCRAM, DDR controller and PHY, TZASC, OCOTP), security (CAAM, HAB, SNVS, CSU, RDC, AIPSTZ), storage and system control (uSDHC, GPC, CCM, SDMA, watchdog, GPIO), connectivity (EQoS, FEC, USB, PCIe, FlexCAN, UART, I2C, ECSPI), multimedia and AI (GPU, VPU, NPU, ISP, DSP) and display, camera and audio interfaces."><rect x="0" y="0" width="1400" height="940" rx="18" fill="#0b1220" stroke="#1e2a44" stroke-width="1.2"/><text x="32" y="46" font-family='"Segoe UI", "Helvetica Neue", Arial, "DejaVu Sans", sans-serif' font-size="26" font-weight="700" text-anchor="start" style="fill:#e5edf7;white-space:pre">Inside the i.MX 8M Plus: the blocks behind the acronyms</text><text x="32" y="72" font-family='"Segoe UI", "Helvetica Neue", Arial, "DejaVu Sans", sans-serif' font-size="14" font-weight="400" text-anchor="start" style="fill:#9fb0c6;white-space:pre">One chip, many processors and controllers. Every name you meet in logs, device trees and these docs is one of these blocks.</text><rect x="24" y="92" width="1352" height="790" rx="20" fill="#0d1628" stroke="#475569" stroke-width="2"/><text x="44" y="120" font-family='"Segoe UI", "Helvetica Neue", Arial, "DejaVu Sans", sans-serif' font-size="15" font-weight="800" text-anchor="start" style="fill:#cbd5e1;white-space:pre">NXP i.MX 8M Plus SoC</text><text x="250" y="120" font-family='"Segoe UI", "Helvetica Neue", Arial, "DejaVu Sans", sans-serif' font-size="12.5" font-weight="400" text-anchor="start" style="fill:#9fb0c6;white-space:pre">(the chip on the Variscite module)</text><rect x="44" y="136" width="430" height="300" rx="14" fill="#2a0f1d" stroke="#f43f5e" stroke-width="1.6"/><g transform="translate(58,148) scale(0.916667)" fill="none" stroke="#fda4af" stroke-width="2" stroke-linecap="round" stroke-linejoin="round"><path d="M12 20v2" /> <path d="M12 2v2" /> <path d="M17 20v2" /> <path d="M17 2v2" /> <path d="M2 12h2" /> <path d="M2 17h2" /> <path d="M2 7h2" /> <path d="M20 12h2" /> <path d="M20 17h2" /> <path d="M20 7h2" /> <path d="M7 20v2" /> <path d="M7 2v2" /> <rect x="4" y="4" width="16" height="16" rx="2" /> <rect x="8" y="8" width="8" height="8" rx="1" /></g><text x="88" y="165" font-family='"Segoe UI", "Helvetica Neue", Arial, "DejaVu Sans", sans-serif' font-size="14" font-weight="800" text-anchor="start" style="fill:#fda4af;white-space:pre">Compute</text><rect x="58" y="182" width="402" height="42" rx="9" fill="#121c33" stroke="#26344f" stroke-width="1.2"/><text x="70" y="200" font-family='"Segoe UI", "Helvetica Neue", Arial, "DejaVu Sans", sans-serif' font-size="13" font-weight="800" text-anchor="start" style="fill:#e5edf7;white-space:pre">4× Cortex-A53</text><text x="70" y="216" font-family='"Segoe UI", "Helvetica Neue", Arial, "DejaVu Sans", sans-serif' font-size="11" font-weight="400" text-anchor="start" style="fill:#9fb0c6;white-space:pre">Arm application cores, up to 1.8 GHz · run Linux</text><rect x="58" y="232" width="402" height="42" rx="9" fill="#121c33" stroke="#26344f" stroke-width="1.2"/><text x="70" y="250" font-family='"Segoe UI", "Helvetica Neue", Arial, "DejaVu Sans", sans-serif' font-size="13" font-weight="800" text-anchor="start" style="fill:#e5edf7;white-space:pre">EL0-EL3 · TrustZone</text><text x="70" y="266" font-family='"Segoe UI", "Helvetica Neue", Arial, "DejaVu Sans", sans-serif' font-size="11" font-weight="400" text-anchor="start" style="fill:#9fb0c6;white-space:pre">privilege levels + secure/normal worlds</text><rect x="58" y="282" width="402" height="42" rx="9" fill="#121c33" stroke="#26344f" stroke-width="1.2"/><text x="70" y="300" font-family='"Segoe UI", "Helvetica Neue", Arial, "DejaVu Sans", sans-serif' font-size="13" font-weight="800" text-anchor="start" style="fill:#e5edf7;white-space:pre">Cortex-M7</text><text x="70" y="316" font-family='"Segoe UI", "Helvetica Neue", Arial, "DejaVu Sans", sans-serif' font-size="11" font-weight="400" text-anchor="start" style="fill:#9fb0c6;white-space:pre">real-time microcontroller core, 800 MHz</text><rect x="58" y="332" width="402" height="42" rx="9" fill="#121c33" stroke="#26344f" stroke-width="1.2"/><text x="70" y="350" font-family='"Segoe UI", "Helvetica Neue", Arial, "DejaVu Sans", sans-serif' font-size="13" font-weight="800" text-anchor="start" style="fill:#e5edf7;white-space:pre">GIC</text><text x="70" y="366" font-family='"Segoe UI", "Helvetica Neue", Arial, "DejaVu Sans", sans-serif' font-size="11" font-weight="400" text-anchor="start" style="fill:#9fb0c6;white-space:pre">Generic Interrupt Controller (Arm)</text><rect x="58" y="382" width="402" height="42" rx="9" fill="#121c33" stroke="#26344f" stroke-width="1.2"/><text x="70" y="400" font-family='"Segoe UI", "Helvetica Neue", Arial, "DejaVu Sans", sans-serif' font-size="13" font-weight="800" text-anchor="start" style="fill:#e5edf7;white-space:pre">PSCI</text><text x="70" y="416" font-family='"Segoe UI", "Helvetica Neue", Arial, "DejaVu Sans", sans-serif' font-size="11" font-weight="400" text-anchor="start" style="fill:#9fb0c6;white-space:pre">Power State Coordination Interface (via BL31)</text><rect x="490" y="136" width="430" height="300" rx="14" fill="#0c1d3d" stroke="#3b82f6" stroke-width="1.6"/><g transform="translate(504,148) scale(0.916667)" fill="none" stroke="#93c5fd" stroke-width="2" stroke-linecap="round" stroke-linejoin="round"><path d="M12 12v-2" /> <path d="M12 18v-2" /> <path d="M16 12v-2" /> <path d="M16 18v-2" /> <path d="M2 11h1.5" /> <path d="M20 18v-2" /> <path d="M20.5 11H22" /> <path d="M4 18v-2" /> <path d="M8 12v-2" /> <path d="M8 18v-2" /> <rect x="2" y="6" width="20" height="10" rx="2" /></g><text x="534" y="165" font-family='"Segoe UI", "Helvetica Neue", Arial, "DejaVu Sans", sans-serif' font-size="14" font-weight="800" text-anchor="start" style="fill:#93c5fd;white-space:pre">Memory &amp; boot</text><rect x="504" y="182" width="402" height="42" rx="9" fill="#121c33" stroke="#26344f" stroke-width="1.2"/><text x="516" y="200" font-family='"Segoe UI", "Helvetica Neue", Arial, "DejaVu Sans", sans-serif' font-size="13" font-weight="800" text-anchor="start" style="fill:#e5edf7;white-space:pre">ROM</text><text x="516" y="216" font-family='"Segoe UI", "Helvetica Neue", Arial, "DejaVu Sans", sans-serif' font-size="11" font-weight="400" text-anchor="start" style="fill:#9fb0c6;white-space:pre">Boot ROM: first code after reset (fixed)</text><rect x="504" y="232" width="402" height="42" rx="9" fill="#121c33" stroke="#26344f" stroke-width="1.2"/><text x="516" y="250" font-family='"Segoe UI", "Helvetica Neue", Arial, "DejaVu Sans", sans-serif' font-size="13" font-weight="800" text-anchor="start" style="fill:#e5edf7;white-space:pre">OCRAM</text><text x="516" y="266" font-family='"Segoe UI", "Helvetica Neue", Arial, "DejaVu Sans", sans-serif' font-size="11" font-weight="400" text-anchor="start" style="fill:#9fb0c6;white-space:pre">On-Chip RAM, 576 KiB: SPL, then BL31</text><rect x="504" y="282" width="402" height="42" rx="9" fill="#121c33" stroke="#26344f" stroke-width="1.2"/><text x="516" y="300" font-family='"Segoe UI", "Helvetica Neue", Arial, "DejaVu Sans", sans-serif' font-size="13" font-weight="800" text-anchor="start" style="fill:#e5edf7;white-space:pre">DDRC + DDR PHY</text><text x="516" y="316" font-family='"Segoe UI", "Helvetica Neue", Arial, "DejaVu Sans", sans-serif' font-size="11" font-weight="400" text-anchor="start" style="fill:#9fb0c6;white-space:pre">LPDDR4 controller + PHY (needs training FW)</text><rect x="504" y="332" width="402" height="42" rx="9" fill="#121c33" stroke="#26344f" stroke-width="1.2"/><text x="516" y="350" font-family='"Segoe UI", "Helvetica Neue", Arial, "DejaVu Sans", sans-serif' font-size="13" font-weight="800" text-anchor="start" style="fill:#e5edf7;white-space:pre">TZASC (TZC-380)</text><text x="516" y="366" font-family='"Segoe UI", "Helvetica Neue", Arial, "DejaVu Sans", sans-serif' font-size="11" font-weight="400" text-anchor="start" style="fill:#9fb0c6;white-space:pre">TrustZone Address Space Controller</text><rect x="504" y="382" width="402" height="42" rx="9" fill="#121c33" stroke="#26344f" stroke-width="1.2"/><text x="516" y="400" font-family='"Segoe UI", "Helvetica Neue", Arial, "DejaVu Sans", sans-serif' font-size="13" font-weight="800" text-anchor="start" style="fill:#e5edf7;white-space:pre">OCOTP</text><text x="516" y="416" font-family='"Segoe UI", "Helvetica Neue", Arial, "DejaVu Sans", sans-serif' font-size="11" font-weight="400" text-anchor="start" style="fill:#9fb0c6;white-space:pre">On-Chip OTP fuses: MAC, boot cfg, keys</text><rect x="936" y="136" width="424" height="300" rx="14" fill="#2a1b05" stroke="#f59e0b" stroke-width="1.6"/><g transform="translate(950,148) scale(0.916667)" fill="none" stroke="#fcd34d" stroke-width="2" stroke-linecap="round" stroke-linejoin="round"><path d="M20 13c0 5-3.5 7.5-7.66 8.95a1 1 0 0 1-.67-.01C7.5 20.5 4 18 4 13V6a1 1 0 0 1 1-1c2 0 4.5-1.2 6.24-2.72a1.17 1.17 0 0 1 1.52 0C14.51 3.81 17 5 19 5a1 1 0 0 1 1 1z" /> <path d="m9 12 2 2 4-4" /></g><text x="980" y="165" font-family='"Segoe UI", "Helvetica Neue", Arial, "DejaVu Sans", sans-serif' font-size="14" font-weight="800" text-anchor="start" style="fill:#fcd34d;white-space:pre">Security</text><rect x="950" y="182" width="396" height="42" rx="9" fill="#121c33" stroke="#26344f" stroke-width="1.2"/><text x="962" y="200" font-family='"Segoe UI", "Helvetica Neue", Arial, "DejaVu Sans", sans-serif' font-size="13" font-weight="800" text-anchor="start" style="fill:#e5edf7;white-space:pre">CAAM</text><text x="962" y="216" font-family='"Segoe UI", "Helvetica Neue", Arial, "DejaVu Sans", sans-serif' font-size="11" font-weight="400" text-anchor="start" style="fill:#9fb0c6;white-space:pre">Cryptographic Acceleration &amp; Assurance Module</text><rect x="950" y="232" width="396" height="42" rx="9" fill="#121c33" stroke="#26344f" stroke-width="1.2"/><text x="962" y="250" font-family='"Segoe UI", "Helvetica Neue", Arial, "DejaVu Sans", sans-serif' font-size="13" font-weight="800" text-anchor="start" style="fill:#e5edf7;white-space:pre">HAB</text><text x="962" y="266" font-family='"Segoe UI", "Helvetica Neue", Arial, "DejaVu Sans", sans-serif' font-size="11" font-weight="400" text-anchor="start" style="fill:#9fb0c6;white-space:pre">High Assurance Boot: signed-image check in ROM</text><rect x="950" y="282" width="396" height="42" rx="9" fill="#121c33" stroke="#26344f" stroke-width="1.2"/><text x="962" y="300" font-family='"Segoe UI", "Helvetica Neue", Arial, "DejaVu Sans", sans-serif' font-size="13" font-weight="800" text-anchor="start" style="fill:#e5edf7;white-space:pre">SNVS</text><text x="962" y="316" font-family='"Segoe UI", "Helvetica Neue", Arial, "DejaVu Sans", sans-serif' font-size="11" font-weight="400" text-anchor="start" style="fill:#9fb0c6;white-space:pre">Secure Non-Volatile Storage: RTC, power key</text><rect x="950" y="332" width="396" height="42" rx="9" fill="#121c33" stroke="#26344f" stroke-width="1.2"/><text x="962" y="350" font-family='"Segoe UI", "Helvetica Neue", Arial, "DejaVu Sans", sans-serif' font-size="13" font-weight="800" text-anchor="start" style="fill:#e5edf7;white-space:pre">CSU · RDC</text><text x="962" y="366" font-family='"Segoe UI", "Helvetica Neue", Arial, "DejaVu Sans", sans-serif' font-size="11" font-weight="400" text-anchor="start" style="fill:#9fb0c6;white-space:pre">Central Security Unit · Resource Domain Ctrl</text><rect x="950" y="382" width="396" height="42" rx="9" fill="#121c33" stroke="#26344f" stroke-width="1.2"/><text x="962" y="400" font-family='"Segoe UI", "Helvetica Neue", Arial, "DejaVu Sans", sans-serif' font-size="13" font-weight="800" text-anchor="start" style="fill:#e5edf7;white-space:pre">AIPSTZ</text><text x="962" y="416" font-family='"Segoe UI", "Helvetica Neue", Arial, "DejaVu Sans", sans-serif' font-size="11" font-weight="400" text-anchor="start" style="fill:#9fb0c6;white-space:pre">peripheral bus bridges with TrustZone checks</text><rect x="44" y="452" width="430" height="250" rx="14" fill="#141f35" stroke="#64748b" stroke-width="1.6"/><g transform="translate(58,464) scale(0.916667)" fill="none" stroke="#cbd5e1" stroke-width="2" stroke-linecap="round" stroke-linejoin="round"><path d="M10 16h.01" /> <path d="M2.212 11.577a2 2 0 0 0-.212.896V18a2 2 0 0 0 2 2h16a2 2 0 0 0 2-2v-5.527a2 2 0 0 0-.212-.896L18.55 5.11A2 2 0 0 0 16.76 4H7.24a2 2 0 0 0-1.79 1.11z" /> <path d="M21.946 12.013H2.054" /> <path d="M6 16h.01" /></g><text x="88" y="481" font-family='"Segoe UI", "Helvetica Neue", Arial, "DejaVu Sans", sans-serif' font-size="14" font-weight="800" text-anchor="start" style="fill:#cbd5e1;white-space:pre">Storage &amp; system control</text><rect x="58" y="498" width="402" height="42" rx="9" fill="#121c33" stroke="#26344f" stroke-width="1.2"/><text x="70" y="516" font-family='"Segoe UI", "Helvetica Neue", Arial, "DejaVu Sans", sans-serif' font-size="13" font-weight="800" text-anchor="start" style="fill:#e5edf7;white-space:pre">uSDHC1-3</text><text x="70" y="532" font-family='"Segoe UI", "Helvetica Neue", Arial, "DejaVu Sans", sans-serif' font-size="11" font-weight="400" text-anchor="start" style="fill:#9fb0c6;white-space:pre">Ultra Secured Digital Host Controllers: SD/eMMC/SDIO</text><rect x="58" y="548" width="402" height="42" rx="9" fill="#121c33" stroke="#26344f" stroke-width="1.2"/><text x="70" y="566" font-family='"Segoe UI", "Helvetica Neue", Arial, "DejaVu Sans", sans-serif' font-size="13" font-weight="800" text-anchor="start" style="fill:#e5edf7;white-space:pre">GPC · CCM</text><text x="70" y="582" font-family='"Segoe UI", "Helvetica Neue", Arial, "DejaVu Sans", sans-serif' font-size="11" font-weight="400" text-anchor="start" style="fill:#9fb0c6;white-space:pre">General Power Controller · Clock Control Module</text><rect x="58" y="598" width="402" height="42" rx="9" fill="#121c33" stroke="#26344f" stroke-width="1.2"/><text x="70" y="616" font-family='"Segoe UI", "Helvetica Neue", Arial, "DejaVu Sans", sans-serif' font-size="13" font-weight="800" text-anchor="start" style="fill:#e5edf7;white-space:pre">SDMA</text><text x="70" y="632" font-family='"Segoe UI", "Helvetica Neue", Arial, "DejaVu Sans", sans-serif' font-size="11" font-weight="400" text-anchor="start" style="fill:#9fb0c6;white-space:pre">Smart DMA engines (load firmware, feed SPI/audio)</text><rect x="58" y="648" width="402" height="42" rx="9" fill="#121c33" stroke="#26344f" stroke-width="1.2"/><text x="70" y="666" font-family='"Segoe UI", "Helvetica Neue", Arial, "DejaVu Sans", sans-serif' font-size="13" font-weight="800" text-anchor="start" style="fill:#e5edf7;white-space:pre">WDOG · GPIO</text><text x="70" y="682" font-family='"Segoe UI", "Helvetica Neue", Arial, "DejaVu Sans", sans-serif' font-size="11" font-weight="400" text-anchor="start" style="fill:#9fb0c6;white-space:pre">watchdog timers · 5 banks of general-purpose I/O</text><rect x="490" y="452" width="430" height="250" rx="14" fill="#06231f" stroke="#14b8a6" stroke-width="1.6"/><g transform="translate(504,464) scale(0.916667)" fill="none" stroke="#5eead4" stroke-width="2" stroke-linecap="round" stroke-linejoin="round"><rect x="16" y="16" width="6" height="6" rx="1" /> <rect x="2" y="16" width="6" height="6" rx="1" /> <rect x="9" y="2" width="6" height="6" rx="1" /> <path d="M5 16v-3a1 1 0 0 1 1-1h12a1 1 0 0 1 1 1v3" /> <path d="M12 12V8" /></g><text x="534" y="481" font-family='"Segoe UI", "Helvetica Neue", Arial, "DejaVu Sans", sans-serif' font-size="14" font-weight="800" text-anchor="start" style="fill:#5eead4;white-space:pre">Connectivity</text><rect x="504" y="498" width="402" height="42" rx="9" fill="#121c33" stroke="#26344f" stroke-width="1.2"/><text x="516" y="516" font-family='"Segoe UI", "Helvetica Neue", Arial, "DejaVu Sans", sans-serif' font-size="13" font-weight="800" text-anchor="start" style="fill:#e5edf7;white-space:pre">EQoS · FEC</text><text x="516" y="532" font-family='"Segoe UI", "Helvetica Neue", Arial, "DejaVu Sans", sans-serif' font-size="11" font-weight="400" text-anchor="start" style="fill:#9fb0c6;white-space:pre">Ethernet: QoS/TSN controller (eth0) · Fast Ethernet Ctrl (eth1)</text><rect x="504" y="548" width="402" height="42" rx="9" fill="#121c33" stroke="#26344f" stroke-width="1.2"/><text x="516" y="566" font-family='"Segoe UI", "Helvetica Neue", Arial, "DejaVu Sans", sans-serif' font-size="13" font-weight="800" text-anchor="start" style="fill:#e5edf7;white-space:pre">USB 3.0 · PCIe</text><text x="516" y="582" font-family='"Segoe UI", "Helvetica Neue", Arial, "DejaVu Sans", sans-serif' font-size="11" font-weight="400" text-anchor="start" style="fill:#9fb0c6;white-space:pre">2× USB 3.0 dual-role · PCI Express Gen3 ×1</text><rect x="504" y="598" width="402" height="42" rx="9" fill="#121c33" stroke="#26344f" stroke-width="1.2"/><text x="516" y="616" font-family='"Segoe UI", "Helvetica Neue", Arial, "DejaVu Sans", sans-serif' font-size="13" font-weight="800" text-anchor="start" style="fill:#e5edf7;white-space:pre">FlexCAN ×2</text><text x="516" y="632" font-family='"Segoe UI", "Helvetica Neue", Arial, "DejaVu Sans", sans-serif' font-size="11" font-weight="400" text-anchor="start" style="fill:#9fb0c6;white-space:pre">CAN-FD bus controllers (can0, can1)</text><rect x="504" y="648" width="402" height="42" rx="9" fill="#121c33" stroke="#26344f" stroke-width="1.2"/><text x="516" y="666" font-family='"Segoe UI", "Helvetica Neue", Arial, "DejaVu Sans", sans-serif' font-size="13" font-weight="800" text-anchor="start" style="fill:#e5edf7;white-space:pre">UART · I2C · ECSPI</text><text x="516" y="682" font-family='"Segoe UI", "Helvetica Neue", Arial, "DejaVu Sans", sans-serif' font-size="11" font-weight="400" text-anchor="start" style="fill:#9fb0c6;white-space:pre">4 UARTs (ttymxcN) · 6 I2C · 3 SPI</text><rect x="936" y="452" width="424" height="250" rx="14" fill="#1d1640" stroke="#8b5cf6" stroke-width="1.6"/><g transform="translate(950,464) scale(0.916667)" fill="none" stroke="#c4b5fd" stroke-width="2" stroke-linecap="round" stroke-linejoin="round"><rect width="20" height="14" x="2" y="3" rx="2" /> <line x1="8" x2="16" y1="21" y2="21" /> <line x1="12" x2="12" y1="17" y2="21" /></g><text x="980" y="481" font-family='"Segoe UI", "Helvetica Neue", Arial, "DejaVu Sans", sans-serif' font-size="14" font-weight="800" text-anchor="start" style="fill:#c4b5fd;white-space:pre">Multimedia &amp; AI</text><rect x="950" y="498" width="396" height="42" rx="9" fill="#121c33" stroke="#26344f" stroke-width="1.2"/><text x="962" y="516" font-family='"Segoe UI", "Helvetica Neue", Arial, "DejaVu Sans", sans-serif' font-size="13" font-weight="800" text-anchor="start" style="fill:#e5edf7;white-space:pre">GPU 3D/2D</text><text x="962" y="532" font-family='"Segoe UI", "Helvetica Neue", Arial, "DejaVu Sans", sans-serif' font-size="11" font-weight="400" text-anchor="start" style="fill:#9fb0c6;white-space:pre">Vivante GC7000UL + GC520L (galcore)</text><rect x="950" y="548" width="396" height="42" rx="9" fill="#121c33" stroke="#26344f" stroke-width="1.2"/><text x="962" y="566" font-family='"Segoe UI", "Helvetica Neue", Arial, "DejaVu Sans", sans-serif' font-size="13" font-weight="800" text-anchor="start" style="fill:#e5edf7;white-space:pre">VPU</text><text x="962" y="582" font-family='"Segoe UI", "Helvetica Neue", Arial, "DejaVu Sans", sans-serif' font-size="11" font-weight="400" text-anchor="start" style="fill:#9fb0c6;white-space:pre">Video Processing Unit: H.264/H.265 (Hantro)</text><rect x="950" y="598" width="396" height="42" rx="9" fill="#121c33" stroke="#26344f" stroke-width="1.2"/><text x="962" y="616" font-family='"Segoe UI", "Helvetica Neue", Arial, "DejaVu Sans", sans-serif' font-size="13" font-weight="800" text-anchor="start" style="fill:#e5edf7;white-space:pre">NPU</text><text x="962" y="632" font-family='"Segoe UI", "Helvetica Neue", Arial, "DejaVu Sans", sans-serif' font-size="11" font-weight="400" text-anchor="start" style="fill:#9fb0c6;white-space:pre">Neural Processing Unit, 2.3 TOPS</text><rect x="950" y="648" width="396" height="42" rx="9" fill="#121c33" stroke="#26344f" stroke-width="1.2"/><text x="962" y="666" font-family='"Segoe UI", "Helvetica Neue", Arial, "DejaVu Sans", sans-serif' font-size="13" font-weight="800" text-anchor="start" style="fill:#e5edf7;white-space:pre">ISP · HiFi4 DSP</text><text x="962" y="682" font-family='"Segoe UI", "Helvetica Neue", Arial, "DejaVu Sans", sans-serif' font-size="11" font-weight="400" text-anchor="start" style="fill:#9fb0c6;white-space:pre">Image Signal Processor ×2 · audio DSP</text><rect x="44" y="718" width="1316" height="150" rx="14" fill="#0c1d3d" stroke="#3b82f6" stroke-width="1.6"/><g transform="translate(58,730) scale(0.916667)" fill="none" stroke="#93c5fd" stroke-width="2" stroke-linecap="round" stroke-linejoin="round"><rect width="20" height="14" x="2" y="3" rx="2" /> <line x1="8" x2="16" y1="21" y2="21" /> <line x1="12" x2="12" y1="17" y2="21" /></g><text x="88" y="747" font-family='"Segoe UI", "Helvetica Neue", Arial, "DejaVu Sans", sans-serif' font-size="14" font-weight="800" text-anchor="start" style="fill:#93c5fd;white-space:pre">Display, camera &amp; audio interfaces</text><rect x="58" y="764" width="422.667" height="42" rx="9" fill="#121c33" stroke="#26344f" stroke-width="1.2"/><text x="70" y="782" font-family='"Segoe UI", "Helvetica Neue", Arial, "DejaVu Sans", sans-serif' font-size="13" font-weight="800" text-anchor="start" style="fill:#e5edf7;white-space:pre">LCDIF ×3</text><text x="70" y="798" font-family='"Segoe UI", "Helvetica Neue", Arial, "DejaVu Sans", sans-serif' font-size="11" font-weight="400" text-anchor="start" style="fill:#9fb0c6;white-space:pre">LCD interface engines (scan-out)</text><rect x="490.667" y="764" width="422.667" height="42" rx="9" fill="#121c33" stroke="#26344f" stroke-width="1.2"/><text x="502.667" y="782" font-family='"Segoe UI", "Helvetica Neue", Arial, "DejaVu Sans", sans-serif' font-size="13" font-weight="800" text-anchor="start" style="fill:#e5edf7;white-space:pre">HDMI TX</text><text x="502.667" y="798" font-family='"Segoe UI", "Helvetica Neue", Arial, "DejaVu Sans", sans-serif' font-size="11" font-weight="400" text-anchor="start" style="fill:#9fb0c6;white-space:pre">HDMI 2.0a output + eARC</text><rect x="923.333" y="764" width="422.667" height="42" rx="9" fill="#121c33" stroke="#26344f" stroke-width="1.2"/><text x="935.333" y="782" font-family='"Segoe UI", "Helvetica Neue", Arial, "DejaVu Sans", sans-serif' font-size="13" font-weight="800" text-anchor="start" style="fill:#e5edf7;white-space:pre">LVDS · MIPI DSI</text><text x="935.333" y="798" font-family='"Segoe UI", "Helvetica Neue", Arial, "DejaVu Sans", sans-serif' font-size="11" font-weight="400" text-anchor="start" style="fill:#9fb0c6;white-space:pre">panel links (the 800×480 LVDS panel)</text><rect x="58" y="814" width="422.667" height="42" rx="9" fill="#121c33" stroke="#26344f" stroke-width="1.2"/><text x="70" y="832" font-family='"Segoe UI", "Helvetica Neue", Arial, "DejaVu Sans", sans-serif' font-size="13" font-weight="800" text-anchor="start" style="fill:#e5edf7;white-space:pre">MIPI CSI ×2 · ISI</text><text x="70" y="848" font-family='"Segoe UI", "Helvetica Neue", Arial, "DejaVu Sans", sans-serif' font-size="11" font-weight="400" text-anchor="start" style="fill:#9fb0c6;white-space:pre">camera input · Image Sensing Interface</text><rect x="490.667" y="814" width="422.667" height="42" rx="9" fill="#121c33" stroke="#26344f" stroke-width="1.2"/><text x="502.667" y="832" font-family='"Segoe UI", "Helvetica Neue", Arial, "DejaVu Sans", sans-serif' font-size="13" font-weight="800" text-anchor="start" style="fill:#e5edf7;white-space:pre">SAI · PDM</text><text x="502.667" y="848" font-family='"Segoe UI", "Helvetica Neue", Arial, "DejaVu Sans", sans-serif' font-size="11" font-weight="400" text-anchor="start" style="fill:#9fb0c6;white-space:pre">Synchronous Audio Interface · digital mics</text><rect x="923.333" y="814" width="422.667" height="42" rx="9" fill="#121c33" stroke="#26344f" stroke-width="1.2"/><text x="935.333" y="832" font-family='"Segoe UI", "Helvetica Neue", Arial, "DejaVu Sans", sans-serif' font-size="13" font-weight="800" text-anchor="start" style="fill:#e5edf7;white-space:pre">PWM</text><text x="935.333" y="848" font-family='"Segoe UI", "Helvetica Neue", Arial, "DejaVu Sans", sans-serif' font-size="11" font-weight="400" text-anchor="start" style="fill:#9fb0c6;white-space:pre">Pulse-Width Modulation (backlight, buzzer)</text><text x="32" y="906" font-family='"Segoe UI", "Helvetica Neue", Arial, "DejaVu Sans", sans-serif' font-size="12.5" font-weight="400" text-anchor="start" style="fill:#9fb0c6;white-space:pre">Full names, what each block does and why it exists: docs/14-acronyms.md. In Linux, most blocks appear as a node in the device tree and a driver in dmesg.</text></svg>
